<svg width="211" height="57" viewBox="0 0 211 57" fill="none" xmlns="http://www.w3.org/2000/svg">
<g filter="url(#filter0_d)">
<path d="M16.0813 47.6464L17.3345 39.2086L22.7648 43.0516L16.0813 47.6464Z" fill="#53B0AE" stroke="white" stroke-width="0.2"/>
<path d="M17.4189 39.0234L24.6278 32.4851L22.8675 42.8793L17.4189 39.0234Z" fill="#53B0AE" stroke="white" stroke-width="0.2"/>
<path d="M24.8406 32.4265L30.1266 37.7963L23.0786 42.8306L24.8406 32.4265Z" fill="#53B0AE" stroke="white" stroke-width="0.2"/>
<path d="M24.5205 32.3125L17.304 38.8576L14.9545 32.1446L24.5205 32.3125Z" fill="#53B0AE" stroke="white" stroke-width="0.2"/>
<path d="M17.094 38.8631L11.2198 36.6293L14.7774 32.2443L17.094 38.8631Z" fill="#53B0AE" stroke="white" stroke-width="0.2"/>
<path d="M24.9741 32.277L34.1116 30.3489L30.2554 37.6421L24.9741 32.277Z" fill="#53B0AE" stroke="white" stroke-width="0.2"/>
<path d="M34.2818 30.4549L37.3793 39.1616L30.4307 37.7384L34.2818 30.4549Z" fill="#53B0AE" stroke="white" stroke-width="0.2"/>
<path d="M34.4768 30.4064L43.7996 35.0258L37.5844 39.1412L34.4768 30.4064Z" fill="#53B0AE" stroke="white" stroke-width="0.2"/>
<path d="M11.0836 36.4798L9.19729 31.887L14.6102 32.133L11.0836 36.4798Z" fill="#53B0AE" stroke="white" stroke-width="0.2"/>
<path d="M14.6287 31.9337L9.16472 31.6853L10.4065 25.0623L14.6287 31.9337Z" fill="#53B0AE" stroke="white" stroke-width="0.2"/>
<path d="M9.00299 31.4625L5.54475 24.299L10.2381 24.8754L9.00299 31.4625Z" fill="#53B0AE" stroke="white" stroke-width="0.2"/>
<path d="M50.9067 35.1722L44.2758 34.9235L51.9842 28.8729L50.9067 35.1722Z" fill="#53B0AE" stroke="white" stroke-width="0.2"/>
<path d="M52.2065 28.7588L57.4968 30.1641L51.132 35.041L52.2065 28.7588Z" fill="#53B0AE" stroke="white" stroke-width="0.2"/>
<path d="M51.8062 28.7584L44.0409 34.8538L41.7864 29.5099L51.8062 28.7584Z" fill="#53B0AE" stroke="white" stroke-width="0.2"/>
<path d="M41.5769 29.5279L43.8028 34.8042L34.6518 30.2699L41.5769 29.5279Z" fill="#53B0AE" stroke="white" stroke-width="0.2"/>
<path d="M24.6443 32.1146L15.1099 31.9474L23.0552 26.0929L24.6443 32.1146Z" fill="#53B0AE" stroke="white" stroke-width="0.2"/>
<path d="M10.2428 24.6745L5.54486 24.0975L9.50103 17.916L10.2428 24.6745Z" fill="#53B0AE" stroke="white" stroke-width="0.2"/>
<path d="M14.841 31.8971L10.5454 24.9064L22.8424 26.0013L14.841 31.8971Z" fill="#53B0AE" stroke="white" stroke-width="0.2"/>
<path d="M24.8471 32.0994L23.2608 26.0883L33.9473 30.1792L24.8471 32.0994Z" fill="#53B0AE" stroke="white" stroke-width="0.2"/>
<path d="M57.5806 29.9794L52.2761 28.5704L55.6743 22.4371L57.5806 29.9794Z" fill="#53B0AE" stroke="white" stroke-width="0.2"/>
<path d="M10.4359 24.6009L9.68193 17.7311L18.5624 18.3176L10.4359 24.6009Z" fill="#53B0AE" stroke="white" stroke-width="0.2"/>
<path d="M10.6191 24.7121L18.8016 18.3854L22.9351 25.8088L10.6191 24.7121Z" fill="#53B0AE" stroke="white" stroke-width="0.2"/>
<path d="M18.6126 18.1204L9.76641 17.5362L13.9391 12.2786L18.6126 18.1204Z" fill="#53B0AE" stroke="white" stroke-width="0.2"/>
<path d="M52.1546 28.377L49.4891 19.3807L55.5699 22.2129L52.1546 28.377Z" fill="#53B0AE" stroke="white" stroke-width="0.2"/>
<path d="M49.3004 19.4393L52.0742 28.4368L46.1455 24.6697L49.3004 19.4393Z" fill="#53B0AE" stroke="white" stroke-width="0.2"/>
<path d="M51.8212 28.5567L41.8864 29.3018L46.0259 24.8312L51.8212 28.5567Z" fill="#53B0AE" stroke="white" stroke-width="0.2"/>
<path d="M34.3792 30.098L33.1352 24.1268L41.3455 29.3516L34.3792 30.098Z" fill="#53B0AE" stroke="white" stroke-width="0.2"/>
<path d="M32.9113 24.0331L34.1645 30.0482L23.471 25.9546L32.9113 24.0331Z" fill="#53B0AE" stroke="white" stroke-width="0.2"/>
<path d="M23.1166 25.7236L19.0175 18.362L26.7975 19.4495L23.1166 25.7236Z" fill="#53B0AE" stroke="white" stroke-width="0.2"/>
<path d="M23.314 25.7824L26.9888 19.5186L32.7515 23.8615L23.314 25.7824Z" fill="#53B0AE" stroke="white" stroke-width="0.2"/>
<path d="M18.7871 18.0183L14.1071 12.1684L20.9548 9.93183L18.7871 18.0183Z" fill="#53B0AE" stroke="white" stroke-width="0.2"/>
<path d="M45.8302 24.7481L41.6863 29.2235L39.7801 22.759L45.8302 24.7481Z" fill="#53B0AE" stroke="white" stroke-width="0.2"/>
<path d="M39.5602 22.7202L41.4688 29.193L33.2534 23.965L39.5602 22.7202Z" fill="#53B0AE" stroke="white" stroke-width="0.2"/>
<path d="M18.9981 18.0033L21.1726 9.89193L29.2251 11.1294L18.9981 18.0033Z" fill="#53B0AE" stroke="white" stroke-width="0.2"/>
<path d="M29.3959 10.9534L21.5162 9.74239L29.478 7.01596L29.3959 10.9534Z" fill="#53B0AE" stroke="white" stroke-width="0.2"/>
<path d="M19.1052 18.1723L29.3157 11.3095L26.8886 19.2603L19.1052 18.1723Z" fill="#53B0AE" stroke="white" stroke-width="0.2"/>
<path d="M29.5961 10.9478L29.6782 7.00845L37.6389 9.38846L29.5961 10.9478Z" fill="#53B0AE" stroke="white" stroke-width="0.2"/>
<path d="M27.1172 19.1966L29.5498 11.2277L35.9249 15.5058L27.1172 19.1966Z" fill="#53B0AE" stroke="white" stroke-width="0.2"/>
<path d="M27.1586 19.3961L35.9599 15.708L32.9423 23.7549L27.1586 19.3961Z" fill="#53B0AE" stroke="white" stroke-width="0.2"/>
<path d="M29.7505 11.1216L37.9116 9.53931L36.0795 15.3687L29.7505 11.1216Z" fill="#53B0AE" stroke="white" stroke-width="0.2"/>
<path d="M38.1179 9.55L44.9456 12.8806L36.2861 15.3785L38.1179 9.55Z" fill="#53B0AE" stroke="white" stroke-width="0.2"/>
<path d="M36.1942 15.6528L41.6872 17.567L33.198 23.6427L36.1942 15.6528Z" fill="#53B0AE" stroke="white" stroke-width="0.2"/>
<path d="M41.6598 17.8326L39.5602 22.5164L33.4229 23.7277L41.6598 17.8326Z" fill="#53B0AE" stroke="white" stroke-width="0.2"/>
<path d="M41.8646 17.4171L36.4645 15.5352L44.9737 13.0806L41.8646 17.4171Z" fill="#53B0AE" stroke="white" stroke-width="0.2"/>
<path d="M39.7669 22.5441L41.9132 17.7562L45.7931 24.5253L39.7669 22.5441Z" fill="#53B0AE" stroke="white" stroke-width="0.2"/>
<path d="M46.0116 24.5045L42.1018 17.6832L49.1727 19.2637L46.0116 24.5045Z" fill="#53B0AE" stroke="white" stroke-width="0.2"/>
<path d="M49.112 19.0452L42.0717 17.4715L45.2191 13.0816L49.112 19.0452Z" fill="#53B0AE" stroke="white" stroke-width="0.2"/>
<path d="M49.3501 19.0441L45.4878 13.1275L52.555 16.168L49.3501 19.0441Z" fill="#53B0AE" stroke="white" stroke-width="0.2"/>
<path d="M49.5096 19.1697L52.7068 16.3004L55.4941 21.957L49.5096 19.1697Z" fill="#53B0AE" stroke="white" stroke-width="0.2"/>
<path d="M19.9766 18.3078C19.9766 18.9103 19.4882 19.3987 18.8857 19.3987C18.2833 19.3987 17.7949 18.9103 17.7949 18.3078C17.7949 17.7054 18.2833 17.217 18.8857 17.217C19.4882 17.217 19.9766 17.7054 19.9766 18.3078Z" fill="#53B0AE" stroke="white" stroke-width="0.5"/>
<path d="M30.1772 11.2142C30.1772 11.5738 29.8858 11.8653 29.5262 11.8653C29.1667 11.8653 28.8752 11.5738 28.8752 11.2142C28.8752 10.8547 29.1667 10.5632 29.5262 10.5632C29.8858 10.5632 30.1772 10.8547 30.1772 11.2142Z" fill="#53B0AE" stroke="white" stroke-width="0.5"/>
<path d="M28.7245 19.2162C28.7245 20.0395 28.0571 20.7069 27.2338 20.7069C26.4105 20.7069 25.743 20.0395 25.743 19.2162C25.743 18.3929 26.4105 17.7255 27.2338 17.7255C28.0571 17.7255 28.7245 18.3929 28.7245 19.2162Z" fill="#53B0AE" stroke="white" stroke-width="0.5"/>
<path d="M36.3649 30.2892C36.3649 31.51 35.3752 32.4997 34.1544 32.4997C32.9336 32.4997 31.9439 31.51 31.9439 30.2892C31.9439 29.0684 32.9336 28.0787 34.1544 28.0787C35.3752 28.0787 36.3649 29.0684 36.3649 30.2892Z" fill="#53B0AE" stroke="white" stroke-width="0.5"/>
<path d="M11.0656 24.7959C11.0656 25.1113 10.8099 25.367 10.4945 25.367C10.1791 25.367 9.92346 25.1113 9.92346 24.7959C9.92346 24.4805 10.1791 24.2249 10.4945 24.2249C10.8099 24.2249 11.0656 24.4805 11.0656 24.7959Z" fill="#53B0AE" stroke="white" stroke-width="0.5"/>
<path d="M24.4823 25.7475C24.4823 26.5929 23.797 27.2782 22.9516 27.2782C22.1062 27.2782 21.4209 26.5929 21.4209 25.7475C21.4209 24.9021 22.1062 24.2168 22.9516 24.2168C23.797 24.2168 24.4823 24.9021 24.4823 25.7475Z" fill="#53B0AE" stroke="white" stroke-width="0.5"/>
<path d="M33.5674 23.8011C33.5674 24.0502 33.3654 24.2522 33.1163 24.2522C32.8671 24.2522 32.6652 24.0502 32.6652 23.8011C32.6652 23.552 32.8671 23.35 33.1163 23.35C33.3654 23.35 33.5674 23.552 33.5674 23.8011Z" fill="#53B0AE" stroke="white" stroke-width="0.5"/>
<path d="M40.9547 22.6765C40.9547 23.279 40.4663 23.7674 39.8639 23.7674C39.2614 23.7674 38.773 23.279 38.773 22.6765C38.773 22.074 39.2614 21.5856 39.8639 21.5856C40.4663 21.5856 40.9547 22.074 40.9547 22.6765Z" fill="#53B0AE" stroke="white" stroke-width="0.5"/>
<path d="M37.2349 15.5829C37.2349 16.1853 36.7465 16.6737 36.144 16.6737C35.5416 16.6737 35.0532 16.1853 35.0532 15.5829C35.0532 14.9804 35.5416 14.492 36.144 14.492C36.7465 14.492 37.2349 14.9804 37.2349 15.5829Z" fill="#53B0AE" stroke="white" stroke-width="0.5"/>
<path d="M53.0658 28.6455C53.0658 29.248 52.5774 29.7364 51.975 29.7364C51.3725 29.7364 50.8841 29.248 50.8841 28.6455C50.8841 28.0431 51.3725 27.5547 51.975 27.5547C52.5774 27.5547 53.0658 28.0431 53.0658 28.6455Z" fill="#53B0AE" stroke="white" stroke-width="0.5"/>
<path d="M46.697 24.5797C46.697 24.9613 46.3876 25.2707 46.006 25.2707C45.6243 25.2707 45.3149 24.9613 45.3149 24.5797C45.3149 24.198 45.6243 23.8886 46.006 23.8886C46.3876 23.8886 46.697 24.198 46.697 24.5797Z" fill="#53B0AE" stroke="white" stroke-width="0.5"/>
<path d="M43.6838 17.659C43.6838 18.5265 42.9805 19.2297 42.1131 19.2297C41.2456 19.2297 40.5424 18.5265 40.5424 17.659C40.5424 16.7916 41.2456 16.0883 42.1131 16.0883C42.9805 16.0883 43.6838 16.7916 43.6838 17.659Z" fill="#53B0AE" stroke="white" stroke-width="0.5"/>
<path d="M42.285 29.3376C42.285 29.7192 41.9757 30.0286 41.594 30.0286C41.2124 30.0286 40.903 29.7192 40.903 29.3376C40.903 28.956 41.2124 28.6466 41.594 28.6466C41.9757 28.6466 42.285 28.956 42.285 29.3376Z" fill="#53B0AE" stroke="white" stroke-width="0.5"/>
<path d="M50.0675 19.346C50.0675 19.7497 49.7402 20.0769 49.3365 20.0769C48.9327 20.0769 48.6055 19.7497 48.6055 19.346C48.6055 18.9422 48.9327 18.615 49.3365 18.615C49.7402 18.615 50.0675 18.9422 50.0675 19.346Z" fill="#53B0AE" stroke="white" stroke-width="0.5"/>
<path d="M16.3604 32.0193C16.3604 32.7985 15.7288 33.4301 14.9496 33.4301C14.1705 33.4301 13.5389 32.7985 13.5389 32.0193C13.5389 31.2402 14.1705 30.6086 14.9496 30.6086C15.7288 30.6086 16.3604 31.2402 16.3604 32.0193Z" fill="#53B0AE" stroke="white" stroke-width="0.5"/>
<path d="M26.4589 32.1491C26.4589 33.0828 25.702 33.8397 24.7683 33.8397C23.8346 33.8397 23.0776 33.0828 23.0776 32.1491C23.0776 31.2154 23.8346 30.4584 24.7683 30.4584C25.702 30.4584 26.4589 31.2154 26.4589 32.1491Z" fill="#53B0AE" stroke="white" stroke-width="0.5"/>
<path d="M15.9487 47.859L17.2595 39.033L11.0551 36.6736L9.04521 31.78L5.375 24.1774L9.56953 17.6235L13.9388 12.1182L29.5809 6.875L38.0573 9.40919L45.223 12.9046L52.7382 16.1379L55.7093 22.1675L57.7192 30.1197L50.9905 35.2754L43.9996 35.0133L37.533 39.2952L30.28 37.8096L22.9396 43.0528L15.9487 47.859Z" stroke="white"/>
</g>
<path d="M84.776 36V22.824L79.112 32.928H77.888L72.2 22.824V36H70.04V18.96H72.32L78.488 30.024L84.68 18.96H86.936V36H84.776ZM102.585 34.08V36H91.0166V18.96H102.369V20.88H93.1766V26.4H101.169V28.2H93.1766V34.08H102.585ZM107.708 22.992V36H105.548V18.96H107.228L117.788 32.232V18.984H119.948V36H118.124L107.708 22.992ZM136.305 20.88H130.425V36H128.265V20.88H122.385V18.96H136.305V20.88ZM150.327 34.08V36H138.759V18.96H150.111V20.88H140.919V26.4H148.911V28.2H140.919V34.08H150.327Z" fill="white"/>
<path d="M165.224 18.96H167.048L174.008 36H171.704L169.688 31.008H162.536L160.544 36H158.24L165.224 18.96ZM169.208 29.328L166.136 21.456L162.968 29.328H169.208ZM166.496 16.92L165.104 16.44L166.496 14.016H168.608L166.496 16.92ZM187.673 33.696C186.169 35.312 184.441 36.12 182.489 36.12C181.353 36.12 180.297 35.872 179.321 35.376C178.361 34.88 177.529 34.232 176.825 33.432C176.121 32.616 175.561 31.688 175.145 30.648C174.745 29.608 174.545 28.536 174.545 27.432C174.545 26.28 174.745 25.192 175.145 24.168C175.545 23.128 176.097 22.216 176.801 21.432C177.505 20.632 178.345 20 179.321 19.536C180.297 19.072 181.353 18.84 182.489 18.84C184.137 18.84 185.489 19.184 186.545 19.872C187.617 20.56 188.433 21.456 188.993 22.56L187.337 23.712C186.825 22.72 186.145 21.984 185.297 21.504C184.449 21.024 183.497 20.784 182.441 20.784C181.577 20.784 180.793 20.976 180.089 21.36C179.385 21.728 178.785 22.224 178.289 22.848C177.793 23.456 177.409 24.168 177.137 24.984C176.865 25.784 176.729 26.616 176.729 27.48C176.729 28.392 176.881 29.256 177.185 30.072C177.489 30.872 177.905 31.584 178.433 32.208C178.961 32.816 179.585 33.296 180.305 33.648C181.025 34 181.809 34.176 182.657 34.176C184.513 34.176 186.185 33.28 187.673 31.488V29.136H184.001V27.504H189.497V36H187.673V33.696ZM192.782 36V18.96H194.942V36H192.782ZM199.017 36V18.96H201.177V34.08H210.681V36H199.017Z" fill="#53B0AE"/>
<defs>
<filter id="filter0_d" x="0" y="0" width="63" height="63" filterUnits="userSpaceOnUse" color-interpolation-filters="sRGB">
<feFlood flood-opacity="0" result="BackgroundImageFix"/>
<feColorMatrix in="SourceAlpha" type="matrix" values="0 0 0 0 0 0 0 0 0 0 0 0 0 0 0 0 0 0 127 0"/>
<feOffset dy="4"/>
<feGaussianBlur stdDeviation="2"/>
<feColorMatrix type="matrix" values="0 0 0 0 0 0 0 0 0 0 0 0 0 0 0 0 0 0 0.25 0"/>
<feBlend mode="normal" in2="BackgroundImageFix" result="effect1_dropShadow"/>
<feBlend mode="normal" in="SourceGraphic" in2="effect1_dropShadow" result="shape"/>
</filter>
</defs>
</svg>
