<svg width="53" height="12" viewBox="0 0 53 12" fill="none" xmlns="http://www.w3.org/2000/svg">
<path d="M6.291 9.12903V4.18803L4.167 7.97703H3.708L1.575 4.18803V9.12903H0.765V2.73903H1.62L3.933 6.88803L6.255 2.73903H7.101V9.12903H6.291ZM12.9692 8.40903V9.12903H8.63121V2.73903H12.8882V3.45903H9.44121V5.52903H12.4382V6.20403H9.44121V8.40903H12.9692ZM14.8904 4.25103V9.12903H14.0804V2.73903H14.7104L18.6704 7.71603V2.74803H19.4804V9.12903H18.7964L14.8904 4.25103ZM25.6142 3.45903H23.4092V9.12903H22.5992V3.45903H20.3942V2.73903H25.6142V3.45903ZM30.8725 8.40903V9.12903H26.5345V2.73903H30.7915V3.45903H27.3445V5.52903H30.3415V6.20403H27.3445V8.40903H30.8725Z" fill="white"/>
<path d="M35.0979 2.61H35.7819L38.3919 9H37.5279L36.7719 7.128H34.0899L33.3429 9H32.4789L35.0979 2.61ZM36.5919 6.498L35.4399 3.546L34.2519 6.498H36.5919ZM35.5749 1.845L35.0529 1.665L35.5749 0.755999H36.3669L35.5749 1.845ZM43.5164 8.136C42.9524 8.742 42.3044 9.045 41.5724 9.045C41.1464 9.045 40.7504 8.952 40.3844 8.766C40.0244 8.58 39.7124 8.337 39.4484 8.037C39.1844 7.731 38.9744 7.383 38.8184 6.993C38.6684 6.603 38.5934 6.201 38.5934 5.787C38.5934 5.355 38.6684 4.947 38.8184 4.563C38.9684 4.173 39.1754 3.831 39.4394 3.537C39.7034 3.237 40.0184 3 40.3844 2.826C40.7504 2.652 41.1464 2.565 41.5724 2.565C42.1904 2.565 42.6974 2.694 43.0934 2.952C43.4954 3.21 43.8014 3.546 44.0114 3.96L43.3904 4.392C43.1984 4.02 42.9434 3.744 42.6254 3.564C42.3074 3.384 41.9504 3.294 41.5544 3.294C41.2304 3.294 40.9364 3.366 40.6724 3.51C40.4084 3.648 40.1834 3.834 39.9974 4.068C39.8114 4.296 39.6674 4.563 39.5654 4.869C39.4634 5.169 39.4124 5.481 39.4124 5.805C39.4124 6.147 39.4694 6.471 39.5834 6.777C39.6974 7.077 39.8534 7.344 40.0514 7.578C40.2494 7.806 40.4834 7.986 40.7534 8.118C41.0234 8.25 41.3174 8.316 41.6354 8.316C42.3314 8.316 42.9584 7.98 43.5164 7.308V6.426H42.1394V5.814H44.2004V9H43.5164V8.136ZM45.4322 9V2.61H46.2422V9H45.4322ZM47.7701 9V2.61H48.5801V8.28H52.1441V9H47.7701Z" fill="#53B0AE"/>
</svg>
