<svg width="236" height="106" viewBox="0 0 236 106" fill="none" xmlns="http://www.w3.org/2000/svg">
<g filter="url(#filter0_d)">
<path d="M26.3601 91.7059L28.7422 75.6663L39.0648 82.9715L26.3601 91.7059Z" fill="#53B0AE" stroke="white" stroke-width="0.5"/>
<path d="M28.9534 75.2032L42.6714 62.7613L39.3217 82.5407L28.9534 75.2032Z" fill="#53B0AE" stroke="white" stroke-width="0.5"/>
<path d="M43.2034 62.6146L53.2652 72.8362L39.8494 82.4189L43.2034 62.6146Z" fill="#53B0AE" stroke="white" stroke-width="0.5"/>
<path d="M42.403 62.3297L28.666 74.7887L24.1936 62.0102L42.403 62.3297Z" fill="#53B0AE" stroke="white" stroke-width="0.5"/>
<path d="M28.1412 74.8026L17.009 70.5692L23.751 62.2592L28.1412 74.8026Z" fill="#53B0AE" stroke="white" stroke-width="0.5"/>
<path d="M43.5372 62.2411L60.9255 58.572L53.5874 72.4507L43.5372 62.2411Z" fill="#53B0AE" stroke="white" stroke-width="0.5"/>
<path d="M61.351 58.8369L67.2432 75.3987L54.0256 72.6915L61.351 58.8369Z" fill="#53B0AE" stroke="white" stroke-width="0.5"/>
<path d="M61.8385 58.7155L79.5901 67.5114L67.7557 75.3477L61.8385 58.7155Z" fill="#53B0AE" stroke="white" stroke-width="0.5"/>
<path d="M16.6683 70.1954L13.1037 61.5162L23.3327 61.9812L16.6683 70.1954Z" fill="#53B0AE" stroke="white" stroke-width="0.5"/>
<path d="M23.379 61.4828L13.0222 61.012L15.376 48.4584L23.379 61.4828Z" fill="#53B0AE" stroke="white" stroke-width="0.5"/>
<path d="M12.618 60.455L6.07439 46.9005L14.955 47.9911L12.618 60.455Z" fill="#53B0AE" stroke="white" stroke-width="0.5"/>
<path d="M93.354 67.7273L80.7808 67.2558L95.3971 55.7828L93.354 67.7273Z" fill="#53B0AE" stroke="white" stroke-width="0.5"/>
<path d="M95.9532 55.4976L105.976 58.1598L93.9174 67.3993L95.9532 55.4976Z" fill="#53B0AE" stroke="white" stroke-width="0.5"/>
<path d="M94.952 55.4965L80.1932 67.0814L75.9084 56.9248L94.952 55.4965Z" fill="#53B0AE" stroke="white" stroke-width="0.5"/>
<path d="M75.3847 56.9698L79.5982 66.9574L62.2761 58.3743L75.3847 56.9698Z" fill="#53B0AE" stroke="white" stroke-width="0.5"/>
<path d="M42.7124 61.835L24.5821 61.517L39.6907 50.3843L42.7124 61.835Z" fill="#53B0AE" stroke="white" stroke-width="0.5"/>
<path d="M14.9668 47.4888L6.07467 46.3967L13.5628 34.6966L14.9668 47.4888Z" fill="#53B0AE" stroke="white" stroke-width="0.5"/>
<path d="M23.9096 61.3914L15.7233 48.0685L39.1587 50.1552L23.9096 61.3914Z" fill="#53B0AE" stroke="white" stroke-width="0.5"/>
<path d="M43.2195 61.7971L40.2048 50.3727L60.5148 58.1476L43.2195 61.7971Z" fill="#53B0AE" stroke="white" stroke-width="0.5"/>
<path d="M106.185 57.6981L96.1269 55.0264L102.57 43.3967L106.185 57.6981Z" fill="#53B0AE" stroke="white" stroke-width="0.5"/>
<path d="M15.4496 47.3048L14.015 34.2343L30.9111 35.3501L15.4496 47.3048Z" fill="#53B0AE" stroke="white" stroke-width="0.5"/>
<path d="M15.9074 47.5829L31.5091 35.5197L39.3904 49.6739L15.9074 47.5829Z" fill="#53B0AE" stroke="white" stroke-width="0.5"/>
<path d="M31.0365 34.8573L14.2262 33.7472L22.1556 23.7562L31.0365 34.8573Z" fill="#53B0AE" stroke="white" stroke-width="0.5"/>
<path d="M95.8232 54.543L90.7608 37.4576L102.309 42.8363L95.8232 54.543Z" fill="#53B0AE" stroke="white" stroke-width="0.5"/>
<path d="M90.2892 37.6041L95.5516 54.6738L84.304 47.5269L90.2892 37.6041Z" fill="#53B0AE" stroke="white" stroke-width="0.5"/>
<path d="M94.9896 54.9923L76.1584 56.4046L84.0047 47.9306L94.9896 54.9923Z" fill="#53B0AE" stroke="white" stroke-width="0.5"/>
<path d="M61.5944 57.9445L59.2352 46.6202L74.8061 56.529L61.5944 57.9445Z" fill="#53B0AE" stroke="white" stroke-width="0.5"/>
<path d="M58.6756 46.3858L61.0578 57.8201L40.7302 50.0384L58.6756 46.3858Z" fill="#53B0AE" stroke="white" stroke-width="0.5"/>
<path d="M39.8443 49.4611L32.0489 35.4613L46.8442 37.5294L39.8443 49.4611Z" fill="#53B0AE" stroke="white" stroke-width="0.5"/>
<path d="M40.3377 49.6081L47.3225 37.7021L58.276 45.9569L40.3377 49.6081Z" fill="#53B0AE" stroke="white" stroke-width="0.5"/>
<path d="M31.4727 34.6021L22.5755 23.4806L35.5939 19.2286L31.4727 34.6021Z" fill="#53B0AE" stroke="white" stroke-width="0.5"/>
<path d="M83.5157 47.7228L75.6583 56.2089L72.0439 43.9513L83.5157 47.7228Z" fill="#53B0AE" stroke="white" stroke-width="0.5"/>
<path d="M71.494 43.8544L75.1144 56.1325L59.5307 46.2156L71.494 43.8544Z" fill="#53B0AE" stroke="white" stroke-width="0.5"/>
<path d="M32.0004 34.5645L36.1383 19.1289L51.4619 21.4838L32.0004 34.5645Z" fill="#53B0AE" stroke="white" stroke-width="0.5"/>
<path d="M51.889 21.0436L36.9972 18.755L52.044 13.6024L51.889 21.0436Z" fill="#53B0AE" stroke="white" stroke-width="0.5"/>
<path d="M32.2681 34.987L51.6884 21.934L47.0721 37.0564L32.2681 34.987Z" fill="#53B0AE" stroke="white" stroke-width="0.5"/>
<path d="M52.3894 21.0296L52.5445 13.5836L67.5917 18.0822L52.3894 21.0296Z" fill="#53B0AE" stroke="white" stroke-width="0.5"/>
<path d="M47.6435 36.8971L52.2736 21.7295L64.4078 29.8721L47.6435 36.8971Z" fill="#53B0AE" stroke="white" stroke-width="0.5"/>
<path d="M47.747 37.3959L64.4953 30.3776L58.753 45.6903L47.747 37.3959Z" fill="#53B0AE" stroke="white" stroke-width="0.5"/>
<path d="M52.7755 21.4641L68.2735 18.4594L64.7944 29.5294L52.7755 21.4641Z" fill="#53B0AE" stroke="white" stroke-width="0.5"/>
<path d="M68.7893 18.4861L81.7545 24.8106L65.3108 29.554L68.7893 18.4861Z" fill="#53B0AE" stroke="white" stroke-width="0.5"/>
<path d="M65.081 30.2397L75.5104 33.8742L59.3922 45.4098L65.081 30.2397Z" fill="#53B0AE" stroke="white" stroke-width="0.5"/>
<path d="M75.4418 34.5382L71.494 43.3447L59.9544 45.6223L75.4418 34.5382Z" fill="#53B0AE" stroke="white" stroke-width="0.5"/>
<path d="M75.9539 33.4992L65.7568 29.9457L81.825 25.3107L75.9539 33.4992Z" fill="#53B0AE" stroke="white" stroke-width="0.5"/>
<path d="M72.0109 43.4141L76.0754 34.3471L83.4228 47.166L72.0109 43.4141Z" fill="#53B0AE" stroke="white" stroke-width="0.5"/>
<path d="M83.9692 47.1138L76.5471 34.1645L89.9701 37.165L83.9692 47.1138Z" fill="#53B0AE" stroke="white" stroke-width="0.5"/>
<path d="M89.8182 36.6187L76.4716 33.6353L82.4383 25.3133L89.8182 36.6187Z" fill="#53B0AE" stroke="white" stroke-width="0.5"/>
<path d="M90.4136 36.616L83.1102 25.4278L96.4738 31.1773L90.4136 36.616Z" fill="#53B0AE" stroke="white" stroke-width="0.5"/>
<path d="M90.8123 36.9299L96.8533 31.5085L102.12 42.1965L90.8123 36.9299Z" fill="#53B0AE" stroke="white" stroke-width="0.5"/>
<path d="M33.7732 35.2842C33.7732 36.4353 32.8401 37.3685 31.689 37.3685C30.5379 37.3685 29.6048 36.4353 29.6048 35.2842C29.6048 34.1331 30.5379 33.2 31.689 33.2C32.8401 33.2 33.7732 34.1331 33.7732 35.2842Z" fill="#53B0AE" stroke="white"/>
<path d="M53.4325 21.6129C53.4325 22.2958 52.8789 22.8494 52.196 22.8494C51.5131 22.8494 50.9595 22.2958 50.9595 21.6129C50.9595 20.93 51.5131 20.3764 52.196 20.3764C52.8789 20.3764 53.4325 20.93 53.4325 21.6129Z" fill="#53B0AE" stroke="white"/>
<path d="M50.6327 37.0348C50.6327 38.6115 49.3545 39.8897 47.7778 39.8897C46.2011 39.8897 44.923 38.6115 44.923 37.0348C44.923 35.4581 46.2011 34.18 47.7778 34.18C49.3545 34.18 50.6327 35.4581 50.6327 37.0348Z" fill="#53B0AE" stroke="white"/>
<path d="M65.3578 58.3755C65.3578 60.7183 63.4586 62.6175 61.1158 62.6175C58.773 62.6175 56.8738 60.7183 56.8738 58.3755C56.8738 56.0327 58.773 54.1335 61.1158 54.1335C63.4586 54.1335 65.3578 56.0327 65.3578 58.3755Z" fill="#53B0AE" stroke="white"/>
<path d="M16.5992 47.7885C16.5992 48.3863 16.1146 48.8709 15.5168 48.8709C14.919 48.8709 14.4344 48.3863 14.4344 47.7885C14.4344 47.1907 14.919 46.7061 15.5168 46.7061C16.1146 46.7061 16.5992 47.1907 16.5992 47.7885Z" fill="#53B0AE" stroke="white"/>
<path d="M42.4569 49.6225C42.4569 51.2417 41.1443 52.5544 39.525 52.5544C37.9057 52.5544 36.5931 51.2417 36.5931 49.6225C36.5931 48.0032 37.9057 46.6906 39.525 46.6906C41.1443 46.6906 42.4569 48.0032 42.4569 49.6225Z" fill="#53B0AE" stroke="white"/>
<path d="M59.9663 45.8712C59.9663 46.3413 59.5852 46.7224 59.1151 46.7224C58.6449 46.7224 58.2639 46.3413 58.2639 45.8712C58.2639 45.4011 58.6449 45.02 59.1151 45.02C59.5852 45.02 59.9663 45.4011 59.9663 45.8712Z" fill="#53B0AE" stroke="white"/>
<path d="M74.2038 43.7038C74.2038 44.8549 73.2706 45.788 72.1196 45.788C70.9685 45.788 70.0353 44.8549 70.0353 43.7038C70.0353 42.5527 70.9685 41.6196 72.1196 41.6196C73.2706 41.6196 74.2038 42.5527 74.2038 43.7038Z" fill="#53B0AE" stroke="white"/>
<path d="M67.0346 30.0324C67.0346 31.1835 66.1015 32.1166 64.9504 32.1166C63.7993 32.1166 62.8662 31.1835 62.8662 30.0324C62.8662 28.8813 63.7993 27.9482 64.9504 27.9482C66.1015 27.9482 67.0346 28.8813 67.0346 30.0324Z" fill="#53B0AE" stroke="white"/>
<path d="M97.5451 55.2077C97.5451 56.3588 96.6119 57.292 95.4609 57.292C94.3098 57.292 93.3766 56.3588 93.3766 55.2077C93.3766 54.0566 94.3098 53.1235 95.4609 53.1235C96.6119 53.1235 97.5451 54.0566 97.5451 55.2077Z" fill="#53B0AE" stroke="white"/>
<path d="M85.2705 47.3717C85.2705 48.0972 84.6824 48.6853 83.9569 48.6853C83.2314 48.6853 82.6433 48.0972 82.6433 47.3717C82.6433 46.6462 83.2314 46.0581 83.9569 46.0581C84.6824 46.0581 85.2705 46.6462 85.2705 47.3717Z" fill="#53B0AE" stroke="white"/>
<path d="M79.4633 34.0338C79.4633 35.6956 78.1162 37.0428 76.4544 37.0428C74.7925 37.0428 73.4454 35.6956 73.4454 34.0338C73.4454 32.372 74.7925 31.0248 76.4544 31.0248C78.1162 31.0248 79.4633 32.372 79.4633 34.0338Z" fill="#53B0AE" stroke="white"/>
<path d="M76.7676 56.5415C76.7676 57.267 76.1795 57.8551 75.454 57.8551C74.7286 57.8551 74.1404 57.267 74.1404 56.5415C74.1404 55.8161 74.7285 55.2279 75.454 55.2279C76.1795 55.2279 76.7676 55.8161 76.7676 56.5415Z" fill="#53B0AE" stroke="white"/>
<path d="M91.7664 37.2849C91.7664 38.053 91.1438 38.6756 90.3758 38.6756C89.6078 38.6756 88.9852 38.053 88.9852 37.2849C88.9852 36.5169 89.6078 35.8943 90.3758 35.8943C91.1438 35.8943 91.7664 36.5169 91.7664 37.2849Z" fill="#53B0AE" stroke="white"/>
<path d="M26.8038 61.71C26.8038 63.2015 25.5946 64.4107 24.1031 64.4107C22.6115 64.4107 21.4023 63.2015 21.4023 61.71C21.4023 60.2184 22.6115 59.0092 24.1031 59.0092C25.5946 59.0092 26.8038 60.2184 26.8038 61.71Z" fill="#53B0AE" stroke="white"/>
<path d="M46.2664 61.9601C46.2664 63.7496 44.8157 65.2002 43.0262 65.2002C41.2367 65.2002 39.7861 63.7496 39.7861 61.9601C39.7861 60.1705 41.2367 58.7199 43.0262 58.7199C44.8157 58.7199 46.2664 60.1705 46.2664 61.9601Z" fill="#53B0AE" stroke="white"/>
<path d="M26.0284 92.2373L28.5547 75.2273L16.5971 70.68L12.7235 61.2487L5.65002 46.5965L13.734 33.9652L22.1548 23.355L52.3014 13.25L68.6378 18.1341L82.448 24.8707L96.9318 31.1022L102.658 42.7229L106.532 58.0488L93.5635 67.9854L80.0901 67.4801L67.6273 75.7325L53.6487 72.8695L39.5018 82.9744L26.0284 92.2373Z" stroke="white" stroke-width="2"/>
</g>
<path d="M129.98 60V49.02L125.26 57.44H124.24L119.5 49.02V60H117.7V45.8H119.6L124.74 55.02L129.9 45.8H131.78V60H129.98ZM144.82 58.4V60H135.18V45.8H144.64V47.4H136.98V52H143.64V53.5H136.98V58.4H144.82ZM149.09 49.16V60H147.29V45.8H148.69L157.49 56.86V45.82H159.29V60H157.77L149.09 49.16ZM172.92 47.4H168.02V60H166.22V47.4H161.32V45.8H172.92V47.4ZM184.606 58.4V60H174.966V45.8H184.426V47.4H176.766V52H183.426V53.5H176.766V58.4H184.606Z" fill="black"/>
<path d="M197.02 45.8H198.54L204.34 60H202.42L200.74 55.84H194.78L193.12 60H191.2L197.02 45.8ZM200.34 54.44L197.78 47.88L195.14 54.44H200.34ZM198.08 44.1L196.92 43.7L198.08 41.68H199.84L198.08 44.1ZM215.728 58.08C214.474 59.4267 213.034 60.1 211.408 60.1C210.461 60.1 209.581 59.8933 208.768 59.48C207.968 59.0667 207.274 58.5267 206.688 57.86C206.101 57.18 205.634 56.4067 205.288 55.54C204.954 54.6733 204.788 53.78 204.788 52.86C204.788 51.9 204.954 50.9933 205.288 50.14C205.621 49.2733 206.081 48.5133 206.668 47.86C207.254 47.1933 207.954 46.6667 208.768 46.28C209.581 45.8933 210.461 45.7 211.408 45.7C212.781 45.7 213.908 45.9867 214.788 46.56C215.681 47.1333 216.361 47.88 216.828 48.8L215.448 49.76C215.021 48.9333 214.454 48.32 213.748 47.92C213.041 47.52 212.248 47.32 211.368 47.32C210.648 47.32 209.994 47.48 209.408 47.8C208.821 48.1067 208.321 48.52 207.908 49.04C207.494 49.5467 207.174 50.14 206.948 50.82C206.721 51.4867 206.608 52.18 206.608 52.9C206.608 53.66 206.734 54.38 206.988 55.06C207.241 55.7267 207.588 56.32 208.028 56.84C208.468 57.3467 208.988 57.7467 209.588 58.04C210.188 58.3333 210.841 58.48 211.548 58.48C213.094 58.48 214.488 57.7333 215.728 56.24V54.28H212.668V52.92H217.248V60H215.728V58.08ZM219.985 60V45.8H221.785V60H219.985ZM225.18 60V45.8H226.98V58.4H234.9V60H225.18Z" fill="#53B0AE"/>
<defs>
<filter id="filter0_d" x="-1" y="0" width="114" height="114" filterUnits="userSpaceOnUse" color-interpolation-filters="sRGB">
<feFlood flood-opacity="0" result="BackgroundImageFix"/>
<feColorMatrix in="SourceAlpha" type="matrix" values="0 0 0 0 0 0 0 0 0 0 0 0 0 0 0 0 0 0 127 0"/>
<feOffset dy="4"/>
<feGaussianBlur stdDeviation="2"/>
<feColorMatrix type="matrix" values="0 0 0 0 0 0 0 0 0 0 0 0 0 0 0 0 0 0 0.25 0"/>
<feBlend mode="normal" in2="BackgroundImageFix" result="effect1_dropShadow"/>
<feBlend mode="normal" in="SourceGraphic" in2="effect1_dropShadow" result="shape"/>
</filter>
</defs>
</svg>
