<svg width="53" height="54" viewBox="0 0 53 54" fill="none" xmlns="http://www.w3.org/2000/svg">
<path d="M11.9089 38.9448L12.9237 32.1117L17.3212 35.2238L11.9089 38.9448Z" fill="#53B0AE" stroke="white" stroke-width="0.2"/>
<path d="M13.0081 31.9265L18.8506 26.6275L17.424 35.0515L13.0081 31.9265Z" fill="#53B0AE" stroke="white" stroke-width="0.2"/>
<path d="M19.0634 26.5688L23.3484 30.9219L17.6351 35.0028L19.0634 26.5688Z" fill="#53B0AE" stroke="white" stroke-width="0.2"/>
<path d="M18.7433 26.4549L12.8932 31.7607L10.9886 26.3188L18.7433 26.4549Z" fill="#53B0AE" stroke="white" stroke-width="0.2"/>
<path d="M12.6833 31.7662L7.93708 29.9613L10.8115 26.4184L12.6833 31.7662Z" fill="#53B0AE" stroke="white" stroke-width="0.2"/>
<path d="M19.197 26.4194L26.6026 24.8567L23.4773 30.7676L19.197 26.4194Z" fill="#53B0AE" stroke="white" stroke-width="0.2"/>
<path d="M26.7728 24.9627L29.2825 32.017L23.6526 30.8639L26.7728 24.9627Z" fill="#53B0AE" stroke="white" stroke-width="0.2"/>
<path d="M26.9678 24.9142L34.5269 28.6597L29.4875 31.9966L26.9678 24.9142Z" fill="#53B0AE" stroke="white" stroke-width="0.2"/>
<path d="M7.80084 29.8118L6.27996 26.1088L10.6442 26.3072L7.80084 29.8118Z" fill="#53B0AE" stroke="white" stroke-width="0.2"/>
<path d="M10.6627 26.1078L6.24739 25.9071L7.25088 20.5552L10.6627 26.1078Z" fill="#53B0AE" stroke="white" stroke-width="0.2"/>
<path d="M6.08568 25.6843L3.29475 19.9031L7.08244 20.3683L6.08568 25.6843Z" fill="#53B0AE" stroke="white" stroke-width="0.2"/>
<path d="M40.3629 28.7585L35.0032 28.5575L41.2339 23.6667L40.3629 28.7585Z" fill="#53B0AE" stroke="white" stroke-width="0.2"/>
<path d="M41.4563 23.5527L45.7297 24.6878L40.5883 28.6273L41.4563 23.5527Z" fill="#53B0AE" stroke="white" stroke-width="0.2"/>
<path d="M41.0559 23.5522L34.7682 28.4877L32.9427 24.1607L41.0559 23.5522Z" fill="#53B0AE" stroke="white" stroke-width="0.2"/>
<path d="M32.7332 24.1787L34.5302 28.4381L27.1428 24.7777L32.7332 24.1787Z" fill="#53B0AE" stroke="white" stroke-width="0.2"/>
<path d="M18.867 26.257L11.144 26.1215L17.5799 21.3793L18.867 26.257Z" fill="#53B0AE" stroke="white" stroke-width="0.2"/>
<path d="M7.08718 20.1673L3.29486 19.7016L6.48839 14.7117L7.08718 20.1673Z" fill="#53B0AE" stroke="white" stroke-width="0.2"/>
<path d="M10.875 26.0713L7.38977 20.3993L17.367 21.2877L10.875 26.0713Z" fill="#53B0AE" stroke="white" stroke-width="0.2"/>
<path d="M19.0699 26.2418L17.7855 21.3746L26.4383 24.687L19.0699 26.2418Z" fill="#53B0AE" stroke="white" stroke-width="0.2"/>
<path d="M45.8135 24.5031L41.5258 23.3642L44.2726 18.4066L45.8135 24.5031Z" fill="#53B0AE" stroke="white" stroke-width="0.2"/>
<path d="M7.28031 20.0938L6.6693 14.5268L13.8656 15.0021L7.28031 20.0938Z" fill="#53B0AE" stroke="white" stroke-width="0.2"/>
<path d="M7.46339 20.205L14.1048 15.0699L17.4597 21.0951L7.46339 20.205Z" fill="#53B0AE" stroke="white" stroke-width="0.2"/>
<path d="M13.9158 14.805L6.75377 14.332L10.1321 10.0753L13.9158 14.805Z" fill="#53B0AE" stroke="white" stroke-width="0.2"/>
<path d="M41.4043 23.1708L39.2472 15.8905L44.1682 18.1825L41.4043 23.1708Z" fill="#53B0AE" stroke="white" stroke-width="0.2"/>
<path d="M39.0585 15.9491L41.3015 23.2247L36.5075 20.1785L39.0585 15.9491Z" fill="#53B0AE" stroke="white" stroke-width="0.2"/>
<path d="M41.0709 23.3505L33.0427 23.9526L36.3878 20.34L41.0709 23.3505Z" fill="#53B0AE" stroke="white" stroke-width="0.2"/>
<path d="M26.8701 24.6058L25.8645 19.7786L32.5018 24.0024L26.8701 24.6058Z" fill="#53B0AE" stroke="white" stroke-width="0.2"/>
<path d="M25.6406 19.6849L26.6555 24.556L17.9957 21.2409L25.6406 19.6849Z" fill="#53B0AE" stroke="white" stroke-width="0.2"/>
<path d="M17.6413 21.01L14.3207 15.0465L20.623 15.9275L17.6413 21.01Z" fill="#53B0AE" stroke="white" stroke-width="0.2"/>
<path d="M17.8387 21.0688L20.8144 15.9966L25.4808 19.5133L17.8387 21.0688Z" fill="#53B0AE" stroke="white" stroke-width="0.2"/>
<path d="M14.0902 14.7029L10.3 9.96511L15.8458 8.15376L14.0902 14.7029Z" fill="#53B0AE" stroke="white" stroke-width="0.2"/>
<path d="M36.1922 20.2569L32.8427 23.8743L31.3019 18.6491L36.1922 20.2569Z" fill="#53B0AE" stroke="white" stroke-width="0.2"/>
<path d="M31.0819 18.6103L32.6251 23.8438L25.9827 19.6168L31.0819 18.6103Z" fill="#53B0AE" stroke="white" stroke-width="0.2"/>
<path d="M14.3013 14.6878L16.0636 8.11386L22.5899 9.11682L14.3013 14.6878Z" fill="#53B0AE" stroke="white" stroke-width="0.2"/>
<path d="M22.7607 8.94071L16.4072 7.9643L22.8269 5.76596L22.7607 8.94071Z" fill="#53B0AE" stroke="white" stroke-width="0.2"/>
<path d="M14.4084 14.8568L22.6805 9.29689L20.7142 15.7383L14.4084 14.8568Z" fill="#53B0AE" stroke="white" stroke-width="0.2"/>
<path d="M22.9609 8.93514L23.0271 5.75845L29.4466 7.6777L22.9609 8.93514Z" fill="#53B0AE" stroke="white" stroke-width="0.2"/>
<path d="M20.9428 15.6746L22.9146 9.21507L28.0822 12.6828L20.9428 15.6746Z" fill="#53B0AE" stroke="white" stroke-width="0.2"/>
<path d="M20.9842 15.8741L28.1172 12.885L25.6716 19.4067L20.9842 15.8741Z" fill="#53B0AE" stroke="white" stroke-width="0.2"/>
<path d="M23.1153 9.10891L29.7194 7.82854L28.2368 12.5457L23.1153 9.10891Z" fill="#53B0AE" stroke="white" stroke-width="0.2"/>
<path d="M29.9257 7.83923L35.4505 10.5343L28.4434 12.5556L29.9257 7.83923Z" fill="#53B0AE" stroke="white" stroke-width="0.2"/>
<path d="M28.3515 12.8299L32.7959 14.3787L25.9272 19.2945L28.3515 12.8299Z" fill="#53B0AE" stroke="white" stroke-width="0.2"/>
<path d="M32.7685 14.6442L31.082 18.4065L26.1521 19.3794L32.7685 14.6442Z" fill="#53B0AE" stroke="white" stroke-width="0.2"/>
<path d="M32.9733 14.2287L28.6218 12.7122L35.4787 10.7343L32.9733 14.2287Z" fill="#53B0AE" stroke="white" stroke-width="0.2"/>
<path d="M31.2887 18.4342L33.0219 14.5678L36.155 20.0341L31.2887 18.4342Z" fill="#53B0AE" stroke="white" stroke-width="0.2"/>
<path d="M36.3736 20.0132L33.2105 14.4948L38.9309 15.7734L36.3736 20.0132Z" fill="#53B0AE" stroke="white" stroke-width="0.2"/>
<path d="M38.8701 15.5549L33.1804 14.2831L35.724 10.7353L38.8701 15.5549Z" fill="#53B0AE" stroke="white" stroke-width="0.2"/>
<path d="M39.1083 15.5538L35.9928 10.7811L41.6935 13.2338L39.1083 15.5538Z" fill="#53B0AE" stroke="white" stroke-width="0.2"/>
<path d="M39.2678 15.6794L41.8453 13.3663L44.0924 17.9265L39.2678 15.6794Z" fill="#53B0AE" stroke="white" stroke-width="0.2"/>
<path d="M15.1263 14.9792C15.1263 15.5022 14.7023 15.9262 14.1793 15.9262C13.6562 15.9262 13.2322 15.5022 13.2322 14.9792C13.2322 14.4561 13.6562 14.0321 14.1793 14.0321C14.7023 14.0321 15.1263 14.4561 15.1263 14.9792Z" fill="#53B0AE" stroke="white" stroke-width="0.3"/>
<path d="M23.4723 9.17528C23.4723 9.49958 23.2094 9.76248 22.8851 9.76248C22.5608 9.76248 22.2979 9.49958 22.2979 9.17528C22.2979 8.85098 22.5608 8.58808 22.8851 8.58808C23.2094 8.58808 23.4723 8.85098 23.4723 9.17528Z" fill="#53B0AE" stroke="white" stroke-width="0.3"/>
<path d="M22.2837 15.7224C22.2837 16.4261 21.7132 16.9966 21.0094 16.9966C20.3057 16.9966 19.7352 16.4261 19.7352 15.7224C19.7352 15.0186 20.3057 14.4481 21.0094 14.4481C21.7132 14.4481 22.2837 15.0186 22.2837 15.7224Z" fill="#53B0AE" stroke="white" stroke-width="0.3"/>
<path d="M28.5349 24.7821C28.5349 25.811 27.7007 26.6452 26.6718 26.6452C25.6428 26.6452 24.8087 25.811 24.8087 24.7821C24.8087 23.7531 25.6428 22.919 26.6718 22.919C27.7007 22.919 28.5349 23.7531 28.5349 24.7821Z" fill="#53B0AE" stroke="white" stroke-width="0.3"/>
<path d="M7.83548 20.2876C7.83548 20.5757 7.60187 20.8094 7.31371 20.8094C7.02554 20.8094 6.79194 20.5757 6.79194 20.2876C6.79194 19.9994 7.02554 19.7658 7.31371 19.7658C7.60187 19.7658 7.83548 19.9994 7.83548 20.2876Z" fill="#53B0AE" stroke="white" stroke-width="0.3"/>
<path d="M18.8128 21.0661C18.8128 21.7879 18.2277 22.3731 17.5059 22.3731C16.7841 22.3731 16.1989 21.7879 16.1989 21.0661C16.1989 20.3443 16.7841 19.7592 17.5059 19.7592C18.2277 19.7592 18.8128 20.3443 18.8128 21.0661Z" fill="#53B0AE" stroke="white" stroke-width="0.3"/>
<path d="M26.246 19.4736C26.246 19.7076 26.0564 19.8972 25.8224 19.8972C25.5885 19.8972 25.3988 19.7076 25.3988 19.4736C25.3988 19.2397 25.5885 19.05 25.8224 19.05C26.0564 19.05 26.246 19.2397 26.246 19.4736Z" fill="#53B0AE" stroke="white" stroke-width="0.3"/>
<path d="M32.2903 18.5535C32.2903 19.0766 31.8662 19.5006 31.3432 19.5006C30.8201 19.5006 30.3961 19.0766 30.3961 18.5535C30.3961 18.0304 30.8201 17.6064 31.3432 17.6064C31.8662 17.6064 32.2903 18.0304 32.2903 18.5535Z" fill="#53B0AE" stroke="white" stroke-width="0.3"/>
<path d="M29.2468 12.7496C29.2468 13.2727 28.8227 13.6967 28.2997 13.6967C27.7766 13.6967 27.3526 13.2727 27.3526 12.7496C27.3526 12.2266 27.7766 11.8026 28.2997 11.8026C28.8227 11.8026 29.2468 12.2266 29.2468 12.7496Z" fill="#53B0AE" stroke="white" stroke-width="0.3"/>
<path d="M42.1993 23.4373C42.1993 23.9603 41.7753 24.3843 41.2522 24.3843C40.7292 24.3843 40.3052 23.9603 40.3052 23.4373C40.3052 22.9142 40.7292 22.4902 41.2522 22.4902C41.7753 22.4902 42.1993 22.9142 42.1993 23.4373Z" fill="#53B0AE" stroke="white" stroke-width="0.3"/>
<path d="M36.9884 20.1106C36.9884 20.453 36.7109 20.7306 36.3685 20.7306C36.0261 20.7306 35.7486 20.453 35.7486 20.1106C35.7486 19.7683 36.0261 19.4907 36.3685 19.4907C36.7109 19.4907 36.9884 19.7683 36.9884 20.1106Z" fill="#53B0AE" stroke="white" stroke-width="0.3"/>
<path d="M34.5231 14.4483C34.5231 15.1882 33.9233 15.788 33.1834 15.788C32.4436 15.788 31.8438 15.1882 31.8438 14.4483C31.8438 13.7084 32.4436 13.1086 33.1834 13.1086C33.9233 13.1086 34.5231 13.7084 34.5231 14.4483Z" fill="#53B0AE" stroke="white" stroke-width="0.3"/>
<path d="M33.3787 24.0035C33.3787 24.3459 33.1011 24.6234 32.7588 24.6234C32.4164 24.6234 32.1388 24.3459 32.1388 24.0035C32.1388 23.6611 32.4164 23.3836 32.7588 23.3836C33.1011 23.3836 33.3787 23.6611 33.3787 24.0035Z" fill="#53B0AE" stroke="white" stroke-width="0.3"/>
<path d="M39.7461 15.8285C39.7461 16.1889 39.4539 16.4811 39.0935 16.4811C38.733 16.4811 38.4408 16.1889 38.4408 15.8285C38.4408 15.4681 38.733 15.1759 39.0935 15.1759C39.4539 15.1759 39.7461 15.4681 39.7461 15.8285Z" fill="#53B0AE" stroke="white" stroke-width="0.3"/>
<path d="M12.1676 26.1976C12.1676 26.8652 11.6264 27.4064 10.9588 27.4064C10.2912 27.4064 9.75004 26.8652 9.75004 26.1976C9.75004 25.53 10.2912 24.9888 10.9588 24.9888C11.6264 24.9888 12.1676 25.53 12.1676 26.1976Z" fill="#53B0AE" stroke="white" stroke-width="0.3"/>
<path d="M20.4301 26.3038C20.4301 27.0979 19.7863 27.7416 18.9922 27.7416C18.1982 27.7416 17.5544 27.0979 17.5544 26.3038C17.5544 25.5097 18.1982 24.866 18.9922 24.866C19.7863 24.866 20.4301 25.5097 20.4301 26.3038Z" fill="#53B0AE" stroke="white" stroke-width="0.3"/>
<path d="M11.7762 39.1574L12.8487 31.9361L7.77234 30.0057L6.1279 26.0018L3.125 19.7815L6.55688 14.4192L10.1318 9.91485L22.9298 5.625L29.8651 7.69843L35.7279 10.5583L41.8767 13.2037L44.3076 18.1371L45.9521 24.6434L40.4467 28.8617L34.7269 28.6472L29.4361 32.1506L23.5018 30.9351L17.496 35.225L11.7762 39.1574Z" stroke="white" stroke-width="0.5"/>
<path d="M6.291 51.129V46.188L4.167 49.977H3.708L1.575 46.188V51.129H0.765V44.739H1.62L3.933 48.888L6.255 44.739H7.101V51.129H6.291ZM12.9692 50.409V51.129H8.63121V44.739H12.8882V45.459H9.44121V47.529H12.4382V48.204H9.44121V50.409H12.9692ZM14.8904 46.251V51.129H14.0804V44.739H14.7104L18.6704 49.716V44.748H19.4804V51.129H18.7964L14.8904 46.251ZM25.6142 45.459H23.4092V51.129H22.5992V45.459H20.3942V44.739H25.6142V45.459ZM30.8725 50.409V51.129H26.5345V44.739H30.7915V45.459H27.3445V47.529H30.3415V48.204H27.3445V50.409H30.8725Z" fill="white"/>
<path d="M35.0979 44.61H35.7819L38.3919 51H37.5279L36.7719 49.128H34.0899L33.3429 51H32.4789L35.0979 44.61ZM36.5919 48.498L35.4399 45.546L34.2519 48.498H36.5919ZM35.5749 43.845L35.0529 43.665L35.5749 42.756H36.3669L35.5749 43.845ZM43.5164 50.136C42.9524 50.742 42.3044 51.045 41.5724 51.045C41.1464 51.045 40.7504 50.952 40.3844 50.766C40.0244 50.58 39.7124 50.337 39.4484 50.037C39.1844 49.731 38.9744 49.383 38.8184 48.993C38.6684 48.603 38.5934 48.201 38.5934 47.787C38.5934 47.355 38.6684 46.947 38.8184 46.563C38.9684 46.173 39.1754 45.831 39.4394 45.537C39.7034 45.237 40.0184 45 40.3844 44.826C40.7504 44.652 41.1464 44.565 41.5724 44.565C42.1904 44.565 42.6974 44.694 43.0934 44.952C43.4954 45.21 43.8014 45.546 44.0114 45.96L43.3904 46.392C43.1984 46.02 42.9434 45.744 42.6254 45.564C42.3074 45.384 41.9504 45.294 41.5544 45.294C41.2304 45.294 40.9364 45.366 40.6724 45.51C40.4084 45.648 40.1834 45.834 39.9974 46.068C39.8114 46.296 39.6674 46.563 39.5654 46.869C39.4634 47.169 39.4124 47.481 39.4124 47.805C39.4124 48.147 39.4694 48.471 39.5834 48.777C39.6974 49.077 39.8534 49.344 40.0514 49.578C40.2494 49.806 40.4834 49.986 40.7534 50.118C41.0234 50.25 41.3174 50.316 41.6354 50.316C42.3314 50.316 42.9584 49.98 43.5164 49.308V48.426H42.1394V47.814H44.2004V51H43.5164V50.136ZM45.4322 51V44.61H46.2422V51H45.4322ZM47.7701 51V44.61H48.5801V50.28H52.1441V51H47.7701Z" fill="#53B0AE"/>
</svg>
