<svg width="45" height="45" viewBox="0 0 45 45" fill="none" xmlns="http://www.w3.org/2000/svg">
<path d="M9.90886 38.9448L10.9237 32.1117L15.3212 35.2238L9.90886 38.9448Z" fill="#53B0AE" stroke="white" stroke-width="0.2"/>
<path d="M11.0081 31.9265L16.8506 26.6275L15.424 35.0515L11.0081 31.9265Z" fill="#53B0AE" stroke="white" stroke-width="0.2"/>
<path d="M17.0634 26.5688L21.3484 30.9219L15.6351 35.0028L17.0634 26.5688Z" fill="#53B0AE" stroke="white" stroke-width="0.2"/>
<path d="M16.7433 26.4549L10.8932 31.7607L8.98857 26.3188L16.7433 26.4549Z" fill="#53B0AE" stroke="white" stroke-width="0.2"/>
<path d="M10.6833 31.7662L5.93708 29.9613L8.81153 26.4184L10.6833 31.7662Z" fill="#53B0AE" stroke="white" stroke-width="0.2"/>
<path d="M17.197 26.4194L24.6026 24.8567L21.4773 30.7676L17.197 26.4194Z" fill="#53B0AE" stroke="white" stroke-width="0.2"/>
<path d="M24.7728 24.9627L27.2825 32.017L21.6526 30.8639L24.7728 24.9627Z" fill="#53B0AE" stroke="white" stroke-width="0.2"/>
<path d="M24.9678 24.9142L32.5269 28.6597L27.4875 31.9966L24.9678 24.9142Z" fill="#53B0AE" stroke="white" stroke-width="0.2"/>
<path d="M5.80084 29.8118L4.27996 26.1088L8.64422 26.3072L5.80084 29.8118Z" fill="#53B0AE" stroke="white" stroke-width="0.2"/>
<path d="M8.66272 26.1078L4.24739 25.9071L5.25088 20.5552L8.66272 26.1078Z" fill="#53B0AE" stroke="white" stroke-width="0.2"/>
<path d="M4.08568 25.6843L1.29475 19.9031L5.08244 20.3683L4.08568 25.6843Z" fill="#53B0AE" stroke="white" stroke-width="0.2"/>
<path d="M38.3629 28.7585L33.0032 28.5575L39.2339 23.6667L38.3629 28.7585Z" fill="#53B0AE" stroke="white" stroke-width="0.2"/>
<path d="M39.4563 23.5527L43.7297 24.6878L38.5883 28.6273L39.4563 23.5527Z" fill="#53B0AE" stroke="white" stroke-width="0.2"/>
<path d="M39.0559 23.5522L32.7682 28.4877L30.9427 24.1607L39.0559 23.5522Z" fill="#53B0AE" stroke="white" stroke-width="0.2"/>
<path d="M30.7332 24.1787L32.5302 28.4381L25.1428 24.7777L30.7332 24.1787Z" fill="#53B0AE" stroke="white" stroke-width="0.2"/>
<path d="M16.867 26.257L9.14398 26.1215L15.5799 21.3793L16.867 26.257Z" fill="#53B0AE" stroke="white" stroke-width="0.2"/>
<path d="M5.08718 20.1673L1.29486 19.7016L4.48839 14.7117L5.08718 20.1673Z" fill="#53B0AE" stroke="white" stroke-width="0.2"/>
<path d="M8.87498 26.0713L5.38977 20.3993L15.367 21.2877L8.87498 26.0713Z" fill="#53B0AE" stroke="white" stroke-width="0.2"/>
<path d="M17.0699 26.2418L15.7855 21.3746L24.4383 24.687L17.0699 26.2418Z" fill="#53B0AE" stroke="white" stroke-width="0.2"/>
<path d="M43.8135 24.5031L39.5258 23.3642L42.2726 18.4066L43.8135 24.5031Z" fill="#53B0AE" stroke="white" stroke-width="0.2"/>
<path d="M5.28031 20.0938L4.6693 14.5268L11.8656 15.0021L5.28031 20.0938Z" fill="#53B0AE" stroke="white" stroke-width="0.2"/>
<path d="M5.46339 20.205L12.1048 15.0699L15.4597 21.0951L5.46339 20.205Z" fill="#53B0AE" stroke="white" stroke-width="0.2"/>
<path d="M11.9158 14.805L4.75377 14.332L8.13208 10.0753L11.9158 14.805Z" fill="#53B0AE" stroke="white" stroke-width="0.2"/>
<path d="M39.4043 23.1708L37.2472 15.8905L42.1682 18.1825L39.4043 23.1708Z" fill="#53B0AE" stroke="white" stroke-width="0.2"/>
<path d="M37.0585 15.9491L39.3015 23.2247L34.5075 20.1785L37.0585 15.9491Z" fill="#53B0AE" stroke="white" stroke-width="0.2"/>
<path d="M39.0709 23.3505L31.0427 23.9526L34.3878 20.34L39.0709 23.3505Z" fill="#53B0AE" stroke="white" stroke-width="0.2"/>
<path d="M24.8701 24.6058L23.8645 19.7786L30.5018 24.0024L24.8701 24.6058Z" fill="#53B0AE" stroke="white" stroke-width="0.2"/>
<path d="M23.6406 19.6849L24.6555 24.556L15.9957 21.2409L23.6406 19.6849Z" fill="#53B0AE" stroke="white" stroke-width="0.2"/>
<path d="M15.6413 21.01L12.3207 15.0465L18.623 15.9275L15.6413 21.01Z" fill="#53B0AE" stroke="white" stroke-width="0.2"/>
<path d="M15.8387 21.0688L18.8144 15.9966L23.4808 19.5133L15.8387 21.0688Z" fill="#53B0AE" stroke="white" stroke-width="0.2"/>
<path d="M12.0902 14.7029L8.3 9.96511L13.8458 8.15376L12.0902 14.7029Z" fill="#53B0AE" stroke="white" stroke-width="0.2"/>
<path d="M34.1922 20.2569L30.8427 23.8743L29.3019 18.6491L34.1922 20.2569Z" fill="#53B0AE" stroke="white" stroke-width="0.2"/>
<path d="M29.0819 18.6103L30.6251 23.8438L23.9827 19.6168L29.0819 18.6103Z" fill="#53B0AE" stroke="white" stroke-width="0.2"/>
<path d="M12.3013 14.6878L14.0636 8.11386L20.5899 9.11682L12.3013 14.6878Z" fill="#53B0AE" stroke="white" stroke-width="0.2"/>
<path d="M20.7607 8.94071L14.4072 7.9643L20.8269 5.76596L20.7607 8.94071Z" fill="#53B0AE" stroke="white" stroke-width="0.2"/>
<path d="M12.4084 14.8568L20.6805 9.29689L18.7142 15.7383L12.4084 14.8568Z" fill="#53B0AE" stroke="white" stroke-width="0.2"/>
<path d="M20.9609 8.93514L21.0271 5.75845L27.4466 7.6777L20.9609 8.93514Z" fill="#53B0AE" stroke="white" stroke-width="0.2"/>
<path d="M18.9428 15.6746L20.9146 9.21507L26.0822 12.6828L18.9428 15.6746Z" fill="#53B0AE" stroke="white" stroke-width="0.2"/>
<path d="M18.9842 15.8741L26.1172 12.885L23.6716 19.4067L18.9842 15.8741Z" fill="#53B0AE" stroke="white" stroke-width="0.2"/>
<path d="M21.1153 9.10891L27.7194 7.82854L26.2368 12.5457L21.1153 9.10891Z" fill="#53B0AE" stroke="white" stroke-width="0.2"/>
<path d="M27.9257 7.83923L33.4505 10.5343L26.4434 12.5556L27.9257 7.83923Z" fill="#53B0AE" stroke="white" stroke-width="0.2"/>
<path d="M26.3515 12.8299L30.7959 14.3787L23.9272 19.2945L26.3515 12.8299Z" fill="#53B0AE" stroke="white" stroke-width="0.2"/>
<path d="M30.7685 14.6442L29.082 18.4065L24.1521 19.3794L30.7685 14.6442Z" fill="#53B0AE" stroke="white" stroke-width="0.2"/>
<path d="M30.9733 14.2287L26.6218 12.7122L33.4787 10.7343L30.9733 14.2287Z" fill="#53B0AE" stroke="white" stroke-width="0.2"/>
<path d="M29.2887 18.4342L31.0219 14.5678L34.155 20.0341L29.2887 18.4342Z" fill="#53B0AE" stroke="white" stroke-width="0.2"/>
<path d="M34.3736 20.0132L31.2105 14.4948L36.9309 15.7734L34.3736 20.0132Z" fill="#53B0AE" stroke="white" stroke-width="0.2"/>
<path d="M36.8701 15.5549L31.1804 14.2831L33.724 10.7353L36.8701 15.5549Z" fill="#53B0AE" stroke="white" stroke-width="0.2"/>
<path d="M37.1083 15.5538L33.9928 10.7811L39.6935 13.2338L37.1083 15.5538Z" fill="#53B0AE" stroke="white" stroke-width="0.2"/>
<path d="M37.2678 15.6794L39.8453 13.3663L42.0924 17.9265L37.2678 15.6794Z" fill="#53B0AE" stroke="white" stroke-width="0.2"/>
<path d="M13.1263 14.9792C13.1263 15.5022 12.7023 15.9262 12.1793 15.9262C11.6562 15.9262 11.2322 15.5022 11.2322 14.9792C11.2322 14.4561 11.6562 14.0321 12.1793 14.0321C12.7023 14.0321 13.1263 14.4561 13.1263 14.9792Z" fill="#53B0AE" stroke="white" stroke-width="0.3"/>
<path d="M21.4723 9.17528C21.4723 9.49958 21.2094 9.76248 20.8851 9.76248C20.5608 9.76248 20.2979 9.49958 20.2979 9.17528C20.2979 8.85098 20.5608 8.58808 20.8851 8.58808C21.2094 8.58808 21.4723 8.85098 21.4723 9.17528Z" fill="#53B0AE" stroke="white" stroke-width="0.3"/>
<path d="M20.2837 15.7224C20.2837 16.4261 19.7132 16.9966 19.0094 16.9966C18.3057 16.9966 17.7352 16.4261 17.7352 15.7224C17.7352 15.0186 18.3057 14.4481 19.0094 14.4481C19.7132 14.4481 20.2837 15.0186 20.2837 15.7224Z" fill="#53B0AE" stroke="white" stroke-width="0.3"/>
<path d="M26.5349 24.7821C26.5349 25.811 25.7007 26.6452 24.6718 26.6452C23.6428 26.6452 22.8087 25.811 22.8087 24.7821C22.8087 23.7531 23.6428 22.919 24.6718 22.919C25.7007 22.919 26.5349 23.7531 26.5349 24.7821Z" fill="#53B0AE" stroke="white" stroke-width="0.3"/>
<path d="M5.83548 20.2876C5.83548 20.5757 5.60187 20.8094 5.31371 20.8094C5.02554 20.8094 4.79194 20.5757 4.79194 20.2876C4.79194 19.9994 5.02554 19.7658 5.31371 19.7658C5.60187 19.7658 5.83548 19.9994 5.83548 20.2876Z" fill="#53B0AE" stroke="white" stroke-width="0.3"/>
<path d="M16.8128 21.0661C16.8128 21.7879 16.2277 22.3731 15.5059 22.3731C14.7841 22.3731 14.1989 21.7879 14.1989 21.0661C14.1989 20.3443 14.7841 19.7592 15.5059 19.7592C16.2277 19.7592 16.8128 20.3443 16.8128 21.0661Z" fill="#53B0AE" stroke="white" stroke-width="0.3"/>
<path d="M24.246 19.4736C24.246 19.7076 24.0564 19.8972 23.8224 19.8972C23.5885 19.8972 23.3988 19.7076 23.3988 19.4736C23.3988 19.2397 23.5885 19.05 23.8224 19.05C24.0564 19.05 24.246 19.2397 24.246 19.4736Z" fill="#53B0AE" stroke="white" stroke-width="0.3"/>
<path d="M30.2903 18.5535C30.2903 19.0766 29.8662 19.5006 29.3432 19.5006C28.8201 19.5006 28.3961 19.0766 28.3961 18.5535C28.3961 18.0304 28.8201 17.6064 29.3432 17.6064C29.8662 17.6064 30.2903 18.0304 30.2903 18.5535Z" fill="#53B0AE" stroke="white" stroke-width="0.3"/>
<path d="M27.2468 12.7496C27.2468 13.2727 26.8227 13.6967 26.2997 13.6967C25.7766 13.6967 25.3526 13.2727 25.3526 12.7496C25.3526 12.2266 25.7766 11.8026 26.2997 11.8026C26.8227 11.8026 27.2468 12.2266 27.2468 12.7496Z" fill="#53B0AE" stroke="white" stroke-width="0.3"/>
<path d="M40.1993 23.4373C40.1993 23.9603 39.7753 24.3843 39.2522 24.3843C38.7292 24.3843 38.3052 23.9603 38.3052 23.4373C38.3052 22.9142 38.7292 22.4902 39.2522 22.4902C39.7753 22.4902 40.1993 22.9142 40.1993 23.4373Z" fill="#53B0AE" stroke="white" stroke-width="0.3"/>
<path d="M34.9884 20.1106C34.9884 20.453 34.7109 20.7306 34.3685 20.7306C34.0261 20.7306 33.7486 20.453 33.7486 20.1106C33.7486 19.7683 34.0261 19.4907 34.3685 19.4907C34.7109 19.4907 34.9884 19.7683 34.9884 20.1106Z" fill="#53B0AE" stroke="white" stroke-width="0.3"/>
<path d="M32.5231 14.4483C32.5231 15.1882 31.9233 15.788 31.1834 15.788C30.4436 15.788 29.8438 15.1882 29.8438 14.4483C29.8438 13.7084 30.4436 13.1086 31.1834 13.1086C31.9233 13.1086 32.5231 13.7084 32.5231 14.4483Z" fill="#53B0AE" stroke="white" stroke-width="0.3"/>
<path d="M31.3787 24.0035C31.3787 24.3459 31.1011 24.6234 30.7588 24.6234C30.4164 24.6234 30.1388 24.3459 30.1388 24.0035C30.1388 23.6611 30.4164 23.3836 30.7588 23.3836C31.1011 23.3836 31.3787 23.6611 31.3787 24.0035Z" fill="#53B0AE" stroke="white" stroke-width="0.3"/>
<path d="M37.7461 15.8285C37.7461 16.1889 37.4539 16.4811 37.0935 16.4811C36.733 16.4811 36.4408 16.1889 36.4408 15.8285C36.4408 15.4681 36.733 15.1759 37.0935 15.1759C37.4539 15.1759 37.7461 15.4681 37.7461 15.8285Z" fill="#53B0AE" stroke="white" stroke-width="0.3"/>
<path d="M10.1676 26.1976C10.1676 26.8652 9.62644 27.4064 8.95884 27.4064C8.29123 27.4064 7.75004 26.8652 7.75004 26.1976C7.75004 25.53 8.29123 24.9888 8.95884 24.9888C9.62644 24.9888 10.1676 25.53 10.1676 26.1976Z" fill="#53B0AE" stroke="white" stroke-width="0.3"/>
<path d="M18.4301 26.3038C18.4301 27.0979 17.7863 27.7416 16.9922 27.7416C16.1982 27.7416 15.5544 27.0979 15.5544 26.3038C15.5544 25.5097 16.1982 24.866 16.9922 24.866C17.7863 24.866 18.4301 25.5097 18.4301 26.3038Z" fill="#53B0AE" stroke="white" stroke-width="0.3"/>
<path d="M9.77621 39.1574L10.8487 31.9361L5.77234 30.0057L4.1279 26.0018L1.125 19.7815L4.55688 14.4192L8.13176 9.91485L20.9298 5.625L27.8651 7.69843L33.7279 10.5583L39.8767 13.2037L42.3076 18.1371L43.9521 24.6434L38.4467 28.8617L32.7269 28.6472L27.4361 32.1506L21.5018 30.9351L15.496 35.225L9.77621 39.1574Z" stroke="white" stroke-width="0.5"/>
</svg>
