<svg width="120" height="122" viewBox="0 0 120 122" fill="none" xmlns="http://www.w3.org/2000/svg">
<g filter="url(#filter0_d)">
<path d="M31.2739 85.3551L33.5368 70.1178L43.343 77.0576L31.2739 85.3551Z" fill="#53B0AE" stroke="white" stroke-width="0.5"/>
<path d="M33.748 69.6547L46.7828 57.8325L43.5998 76.6268L33.748 69.6547Z" fill="#53B0AE" stroke="white" stroke-width="0.5"/>
<path d="M47.3147 57.6858L56.8761 67.399L44.1276 76.505L47.3147 57.6858Z" fill="#53B0AE" stroke="white" stroke-width="0.5"/>
<path d="M46.5144 57.4009L33.4606 69.2403L29.2106 57.0973L46.5144 57.4009Z" fill="#53B0AE" stroke="white" stroke-width="0.5"/>
<path d="M32.9358 69.2541L22.3676 65.2352L28.768 57.3463L32.9358 69.2541Z" fill="#53B0AE" stroke="white" stroke-width="0.5"/>
<path d="M47.6486 57.3122L64.171 53.8259L57.1983 67.0135L47.6486 57.3122Z" fill="#53B0AE" stroke="white" stroke-width="0.5"/>
<path d="M64.5965 54.0908L70.1947 69.8264L57.6365 67.2542L64.5965 54.0908Z" fill="#53B0AE" stroke="white" stroke-width="0.5"/>
<path d="M65.084 53.9694L81.9538 62.3283L70.7073 69.7754L65.084 53.9694Z" fill="#53B0AE" stroke="white" stroke-width="0.5"/>
<path d="M22.027 64.8615L18.645 56.6272L28.3498 57.0683L22.027 64.8615Z" fill="#53B0AE" stroke="white" stroke-width="0.5"/>
<path d="M28.396 56.5699L18.5636 56.1229L20.7983 44.2049L28.396 56.5699Z" fill="#53B0AE" stroke="white" stroke-width="0.5"/>
<path d="M18.1593 55.5659L11.9494 42.7025L20.3772 43.7375L18.1593 55.5659Z" fill="#53B0AE" stroke="white" stroke-width="0.5"/>
<path d="M95.0821 62.5205L83.1444 62.0728L97.022 51.1797L95.0821 62.5205Z" fill="#53B0AE" stroke="white" stroke-width="0.5"/>
<path d="M97.578 50.8945L107.092 53.4217L95.6455 62.1924L97.578 50.8945Z" fill="#53B0AE" stroke="white" stroke-width="0.5"/>
<path d="M96.5769 50.8934L82.5569 61.8983L78.4866 52.2502L96.5769 50.8934Z" fill="#53B0AE" stroke="white" stroke-width="0.5"/>
<path d="M77.9629 52.2952L81.9619 61.7744L65.5215 53.6282L77.9629 52.2952Z" fill="#53B0AE" stroke="white" stroke-width="0.5"/>
<path d="M46.8238 56.9062L29.5991 56.604L43.953 46.0275L46.8238 56.9062Z" fill="#53B0AE" stroke="white" stroke-width="0.5"/>
<path d="M20.389 43.2352L11.9497 42.1988L19.0565 31.0944L20.389 43.2352Z" fill="#53B0AE" stroke="white" stroke-width="0.5"/>
<path d="M28.9267 56.4785L21.1455 43.815L43.421 45.7984L28.9267 56.4785Z" fill="#53B0AE" stroke="white" stroke-width="0.5"/>
<path d="M47.3309 56.8683L44.4671 46.0158L63.7603 53.4015L47.3309 56.8683Z" fill="#53B0AE" stroke="white" stroke-width="0.5"/>
<path d="M107.301 52.9599L97.7518 50.4233L103.87 39.3815L107.301 52.9599Z" fill="#53B0AE" stroke="white" stroke-width="0.5"/>
<path d="M20.8718 43.0513L19.5088 30.6322L35.5627 31.6924L20.8718 43.0513Z" fill="#53B0AE" stroke="white" stroke-width="0.5"/>
<path d="M21.3295 43.3294L36.1607 31.862L43.6528 45.3171L21.3295 43.3294Z" fill="#53B0AE" stroke="white" stroke-width="0.5"/>
<path d="M35.6882 31.1996L19.7199 30.1451L27.2521 20.6545L35.6882 31.1996Z" fill="#53B0AE" stroke="white" stroke-width="0.5"/>
<path d="M97.448 49.9399L92.6399 33.7124L103.608 38.8211L97.448 49.9399Z" fill="#53B0AE" stroke="white" stroke-width="0.5"/>
<path d="M92.1682 33.8589L97.1652 50.0677L86.4849 43.2813L92.1682 33.8589Z" fill="#53B0AE" stroke="white" stroke-width="0.5"/>
<path d="M96.6145 50.3892L78.7366 51.73L86.1857 43.685L96.6145 50.3892Z" fill="#53B0AE" stroke="white" stroke-width="0.5"/>
<path d="M64.84 53.1984L62.5999 42.4461L77.3844 51.8544L64.84 53.1984Z" fill="#53B0AE" stroke="white" stroke-width="0.5"/>
<path d="M64.3033 53.074L44.9925 45.6816L62.0403 42.2117L64.3033 53.074Z" fill="#53B0AE" stroke="white" stroke-width="0.5"/>
<path d="M44.1066 45.1043L36.7005 31.8035L50.757 33.7684L44.1066 45.1043Z" fill="#53B0AE" stroke="white" stroke-width="0.5"/>
<path d="M44.6 45.2513L51.2353 33.9411L61.6407 41.7828L44.6 45.2513Z" fill="#53B0AE" stroke="white" stroke-width="0.5"/>
<path d="M36.1242 30.9443L27.6719 20.3789L40.0394 16.3396L36.1242 30.9443Z" fill="#53B0AE" stroke="white" stroke-width="0.5"/>
<path d="M85.6967 43.4772L78.2364 51.5343L74.8047 39.8963L85.6967 43.4772Z" fill="#53B0AE" stroke="white" stroke-width="0.5"/>
<path d="M74.2549 39.7994L77.6927 51.4579L62.8954 42.0415L74.2549 39.7994Z" fill="#53B0AE" stroke="white" stroke-width="0.5"/>
<path d="M36.652 30.9068L40.5838 16.2398L55.1444 18.4775L36.652 30.9068Z" fill="#53B0AE" stroke="white" stroke-width="0.5"/>
<path d="M55.5714 18.0372L41.4428 15.866L55.7185 10.9774L55.5714 18.0372Z" fill="#53B0AE" stroke="white" stroke-width="0.5"/>
<path d="M36.9197 31.3293L55.3709 18.9277L50.9849 33.2954L36.9197 31.3293Z" fill="#53B0AE" stroke="white" stroke-width="0.5"/>
<path d="M56.0718 18.0233L56.219 10.9586L70.4956 15.2269L56.0718 18.0233Z" fill="#53B0AE" stroke="white" stroke-width="0.5"/>
<path d="M51.5563 33.1361L55.956 18.7231L67.4864 26.4606L51.5563 33.1361Z" fill="#53B0AE" stroke="white" stroke-width="0.5"/>
<path d="M51.6598 33.6349L67.5739 26.9661L62.1176 41.5162L51.6598 33.6349Z" fill="#53B0AE" stroke="white" stroke-width="0.5"/>
<path d="M56.4579 18.4578L71.1774 15.604L67.873 26.1179L56.4579 18.4578Z" fill="#53B0AE" stroke="white" stroke-width="0.5"/>
<path d="M71.6931 15.6307L84.0069 21.6374L68.3894 26.1425L71.6931 15.6307Z" fill="#53B0AE" stroke="white" stroke-width="0.5"/>
<path d="M68.1597 26.8282L78.0648 30.28L62.7568 41.2357L68.1597 26.8282Z" fill="#53B0AE" stroke="white" stroke-width="0.5"/>
<path d="M77.9962 30.944L74.255 39.2898L63.3191 41.4482L77.9962 30.944Z" fill="#53B0AE" stroke="white" stroke-width="0.5"/>
<path d="M78.5082 29.905L68.8354 26.5342L84.0774 22.1375L78.5082 29.905Z" fill="#53B0AE" stroke="white" stroke-width="0.5"/>
<path d="M74.7718 39.3592L78.6297 30.7529L85.6037 42.9204L74.7718 39.3592Z" fill="#53B0AE" stroke="white" stroke-width="0.5"/>
<path d="M86.1502 42.8682L79.1014 30.5703L91.8492 33.4198L86.1502 42.8682Z" fill="#53B0AE" stroke="white" stroke-width="0.5"/>
<path d="M91.6973 32.8735L79.0259 30.0411L84.6907 22.1401L91.6973 32.8735Z" fill="#53B0AE" stroke="white" stroke-width="0.5"/>
<path d="M92.2926 32.8708L85.3626 22.2546L98.0431 27.7102L92.2926 32.8708Z" fill="#53B0AE" stroke="white" stroke-width="0.5"/>
<path d="M92.6913 33.1848L98.4226 28.0414L103.419 38.1813L92.6913 33.1848Z" fill="#53B0AE" stroke="white" stroke-width="0.5"/>
<path d="M38.2981 31.6199C38.2981 32.7036 37.4195 33.5822 36.3357 33.5822C35.252 33.5822 34.3734 32.7036 34.3734 31.6199C34.3734 30.5361 35.252 29.6576 36.3357 29.6576C37.4195 29.6576 38.2981 30.5361 38.2981 31.6199Z" fill="#53B0AE" stroke="white"/>
<path d="M57.03 18.5934C57.03 19.2311 56.5131 19.748 55.8754 19.748C55.2378 19.748 54.7208 19.2311 54.7208 18.5934C54.7208 17.9557 55.2378 17.4388 55.8754 17.4388C56.5131 17.4388 57.03 17.9557 57.03 18.5934Z" fill="#53B0AE" stroke="white"/>
<path d="M54.3623 33.2879C54.3623 34.7772 53.1549 35.9845 51.6657 35.9845C50.1764 35.9845 48.9691 34.7772 48.9691 33.2879C48.9691 31.7986 50.1764 30.5913 51.6657 30.5913C53.1549 30.5913 54.3623 31.7986 54.3623 33.2879Z" fill="#53B0AE" stroke="white"/>
<path d="M68.3927 53.6219C68.3927 55.8412 66.5937 57.6403 64.3744 57.6403C62.1551 57.6403 60.3561 55.8412 60.3561 53.6219C60.3561 51.4027 62.1551 49.6036 64.3744 49.6036C66.5937 49.6036 68.3927 51.4027 68.3927 53.6219Z" fill="#53B0AE" stroke="white"/>
<path d="M21.9341 43.5343C21.9341 44.0909 21.4829 44.5421 20.9263 44.5421C20.3698 44.5421 19.9186 44.0909 19.9186 43.5343C19.9186 42.9778 20.3698 42.5266 20.9263 42.5266C21.4829 42.5266 21.9341 42.9778 21.9341 43.5343Z" fill="#53B0AE" stroke="white"/>
<path d="M46.5721 45.2818C46.5721 46.8116 45.3319 48.0518 43.8021 48.0518C42.2722 48.0518 41.032 46.8116 41.032 45.2818C41.032 43.7519 42.2722 42.5118 43.8021 42.5118C45.3319 42.5118 46.5721 43.7519 46.5721 45.2818Z" fill="#53B0AE" stroke="white"/>
<path d="M63.2556 41.7075C63.2556 42.1424 62.903 42.4949 62.4681 42.4949C62.0332 42.4949 61.6807 42.1424 61.6807 41.7075C61.6807 41.2726 62.0332 40.92 62.4681 40.92C62.903 40.92 63.2556 41.2726 63.2556 41.7075Z" fill="#53B0AE" stroke="white"/>
<path d="M76.8215 39.6423C76.8215 40.726 75.9429 41.6046 74.8592 41.6046C73.7754 41.6046 72.8969 40.726 72.8969 39.6423C72.8969 38.5585 73.7754 37.68 74.8592 37.68C75.9429 37.68 76.8215 38.5585 76.8215 39.6423Z" fill="#53B0AE" stroke="white"/>
<path d="M69.9905 26.6158C69.9905 27.6996 69.1119 28.5781 68.0282 28.5781C66.9444 28.5781 66.0659 27.6996 66.0659 26.6158C66.0659 25.532 66.9444 24.6535 68.0282 24.6535C69.1119 24.6535 69.9905 25.532 69.9905 26.6158Z" fill="#53B0AE" stroke="white"/>
<path d="M99.0619 50.6036C99.0619 51.6874 98.1833 52.5659 97.0995 52.5659C96.0158 52.5659 95.1372 51.6874 95.1372 50.6036C95.1372 49.5198 96.0158 48.6413 97.0995 48.6413C98.1833 48.6413 99.0619 49.5198 99.0619 50.6036Z" fill="#53B0AE" stroke="white"/>
<path d="M87.3662 43.1372C87.3662 43.8154 86.8164 44.3652 86.1382 44.3652C85.46 44.3652 84.9102 43.8154 84.9102 43.1372C84.9102 42.459 85.46 41.9092 86.1382 41.9092C86.8164 41.9092 87.3662 42.459 87.3662 43.1372Z" fill="#53B0AE" stroke="white"/>
<path d="M81.833 30.4284C81.833 31.9988 80.5599 33.2719 78.9895 33.2719C77.4191 33.2719 76.1461 31.9988 76.1461 30.4284C76.1461 28.858 77.4191 27.585 78.9895 27.585C80.5599 27.585 81.833 28.858 81.833 30.4284Z" fill="#53B0AE" stroke="white"/>
<path d="M79.2644 51.8745C79.2644 52.5527 78.7146 53.1025 78.0363 53.1025C77.3581 53.1025 76.8083 52.5527 76.8083 51.8745C76.8083 51.1963 77.3581 50.6464 78.0363 50.6464C78.7146 50.6464 79.2644 51.1963 79.2644 51.8745Z" fill="#53B0AE" stroke="white"/>
<path d="M93.5557 33.5262C93.5557 34.245 92.973 34.8277 92.2542 34.8277C91.5354 34.8277 90.9528 34.245 90.9528 33.5262C90.9528 32.8074 91.5354 32.2247 92.2542 32.2247C92.973 32.2247 93.5557 32.8074 93.5557 33.5262Z" fill="#53B0AE" stroke="white"/>
<path d="M31.6574 56.7991C31.6574 58.2073 30.5158 59.3489 29.1076 59.3489C27.6994 59.3489 26.5579 58.2073 26.5579 56.7991C26.5579 55.3909 27.6994 54.2494 29.1076 54.2494C30.5158 54.2494 31.6574 55.3909 31.6574 56.7991Z" fill="#53B0AE" stroke="white"/>
<path d="M50.2019 57.0374C50.2019 58.7295 48.8302 60.1012 47.1382 60.1012C45.4461 60.1012 44.0744 58.7295 44.0744 57.0374C44.0744 55.3453 45.4461 53.9736 47.1382 53.9736C48.8302 53.9736 50.2019 55.3453 50.2019 57.0374Z" fill="#53B0AE" stroke="white"/>
<path d="M30.9422 85.8865L33.3493 69.6788L21.9557 65.3461L18.2649 56.3596L11.525 42.3985L19.2277 30.3631L27.2513 20.2533L55.9759 10.625L71.5417 15.2787L84.7004 21.6976L98.5011 27.6351L103.957 38.7077L107.648 53.3106L95.2916 62.7785L82.4538 62.2971L70.5789 70.1602L57.2597 67.4322L43.78 77.0606L30.9422 85.8865Z" stroke="white" stroke-width="2"/>
</g>
<path d="M13.98 118V107.02L9.26 115.44H8.24L3.5 107.02V118H1.7V103.8H3.6L8.74 113.02L13.9 103.8H15.78V118H13.98ZM28.8205 116.4V118H19.1805V103.8H28.6405V105.4H20.9805V110H27.6405V111.5H20.9805V116.4H28.8205ZM33.0898 107.16V118H31.2898V103.8H32.6898L41.4898 114.86V103.82H43.2898V118H41.7698L33.0898 107.16ZM56.9205 105.4H52.0205V118H50.2205V105.4H45.3205V103.8H56.9205V105.4ZM68.6056 116.4V118H58.9656V103.8H68.4256V105.4H60.7656V110H67.4256V111.5H60.7656V116.4H68.6056Z" fill="black"/>
<path d="M81.02 103.8H82.54L88.34 118H86.42L84.74 113.84H78.78L77.12 118H75.2L81.02 103.8ZM84.34 112.44L81.78 105.88L79.14 112.44H84.34ZM82.08 102.1L80.92 101.7L82.08 99.68H83.84L82.08 102.1ZM99.7278 116.08C98.4745 117.427 97.0345 118.1 95.4078 118.1C94.4611 118.1 93.5811 117.893 92.7678 117.48C91.9678 117.067 91.2745 116.527 90.6878 115.86C90.1011 115.18 89.6345 114.407 89.2878 113.54C88.9545 112.673 88.7878 111.78 88.7878 110.86C88.7878 109.9 88.9545 108.993 89.2878 108.14C89.6211 107.273 90.0811 106.513 90.6678 105.86C91.2545 105.193 91.9545 104.667 92.7678 104.28C93.5811 103.893 94.4611 103.7 95.4078 103.7C96.7811 103.7 97.9078 103.987 98.7878 104.56C99.6811 105.133 100.361 105.88 100.828 106.8L99.4478 107.76C99.0211 106.933 98.4545 106.32 97.7478 105.92C97.0411 105.52 96.2478 105.32 95.3678 105.32C94.6478 105.32 93.9945 105.48 93.4078 105.8C92.8211 106.107 92.3211 106.52 91.9078 107.04C91.4945 107.547 91.1745 108.14 90.9478 108.82C90.7211 109.487 90.6078 110.18 90.6078 110.9C90.6078 111.66 90.7345 112.38 90.9878 113.06C91.2411 113.727 91.5878 114.32 92.0278 114.84C92.4678 115.347 92.9878 115.747 93.5878 116.04C94.1878 116.333 94.8411 116.48 95.5478 116.48C97.0945 116.48 98.4878 115.733 99.7278 114.24V112.28H96.6678V110.92H101.248V118H99.7278V116.08ZM103.985 118V103.8H105.785V118H103.985ZM109.18 118V103.8H110.98V116.4H118.9V118H109.18Z" fill="#53B0AE"/>
<defs>
<filter id="filter0_d" x="5" y="-2" width="109" height="109" filterUnits="userSpaceOnUse" color-interpolation-filters="sRGB">
<feFlood flood-opacity="0" result="BackgroundImageFix"/>
<feColorMatrix in="SourceAlpha" type="matrix" values="0 0 0 0 0 0 0 0 0 0 0 0 0 0 0 0 0 0 127 0"/>
<feOffset dy="4"/>
<feGaussianBlur stdDeviation="2"/>
<feColorMatrix type="matrix" values="0 0 0 0 0 0 0 0 0 0 0 0 0 0 0 0 0 0 0.25 0"/>
<feBlend mode="normal" in2="BackgroundImageFix" result="effect1_dropShadow"/>
<feBlend mode="normal" in="SourceGraphic" in2="effect1_dropShadow" result="shape"/>
</filter>
</defs>
</svg>
